# This file uses centimeters as units for non-parametric coordinates.

mtllib Arrow.mtl
g default
v -0.529496 0.391679 -3.902590
v -0.892768 0.130755 -3.902590
v -0.892768 -0.191766 -3.902590
v -0.529496 -0.452691 -3.902590
v 0.058290 -0.552355 -3.902590
v 0.646074 -0.452691 -3.902590
v 1.009346 -0.191766 -3.902590
v 1.009346 0.130755 -3.902590
v 0.646074 0.391679 -3.902590
v 0.058290 0.491344 -3.902590
v -0.491079 0.375814 3.376981
v -0.825608 0.132791 3.377359
v -0.822519 -0.166431 3.377544
v -0.482991 -0.407559 3.377466
v 0.063288 -0.498491 3.377154
v 0.607657 -0.404493 3.376728
v 0.942186 -0.161469 3.376350
v 0.939097 0.137753 3.376165
v 0.599569 0.378881 3.376243
v 0.053290 0.469812 3.376555
v 0.058290 -0.030506 -3.902590
v -0.564947 0.433309 3.376854
v -0.950129 0.156647 3.376855
v -0.950129 -0.185326 3.376855
v -0.564947 -0.461988 3.376855
v 0.058289 -0.567663 3.376855
v 0.681526 -0.461988 3.376854
v 1.066707 -0.185326 3.376855
v 1.066707 0.156647 3.376854
v 0.681526 0.433309 3.376855
v 0.058289 0.538985 3.376855
v -0.642852 0.489265 3.376854
v -1.076181 0.178021 3.376855
v -1.076181 -0.206699 3.376854
v -0.642852 -0.517944 3.376855
v 0.058289 -0.636829 3.376855
v 0.759430 -0.517944 3.376855
v 1.192759 -0.206699 3.376855
v 1.192759 0.178021 3.376855
v 0.759430 0.489265 3.376854
v 0.058289 0.608150 3.376855
v -0.720757 0.545221 3.376855
v -1.202233 0.199394 3.376854
v -1.202233 -0.228072 3.376855
v -0.720756 -0.573900 3.376854
v 0.058289 -0.705994 3.376855
v 0.837335 -0.573900 3.376855
v 1.318811 -0.228072 3.376855
v 1.318811 0.199394 3.376854
v 0.837335 0.545221 3.376854
v 0.058289 0.677316 3.376855
v 0.058289 -0.014339 5.553133
vt 0.626409 0.064409
vt 0.548284 0.007647
vt 0.451716 0.007647
vt 0.373591 0.064409
vt 0.343750 0.156250
vt 0.373591 0.248091
vt 0.451716 0.304853
vt 0.548284 0.304853
vt 0.626409 0.248091
vt 0.656250 0.156250
vt 0.375000 0.312500
vt 0.400000 0.312500
vt 0.425000 0.312500
vt 0.450000 0.312500
vt 0.475000 0.312500
vt 0.500000 0.312500
vt 0.525000 0.312500
vt 0.550000 0.312500
vt 0.575000 0.312500
vt 0.600000 0.312500
vt 0.625000 0.312500
vt 0.375085 0.717453
vt 0.398819 0.717475
vt 0.423508 0.717485
vt 0.448765 0.717480
vt 0.474407 0.717463
vt 0.500186 0.717439
vt 0.525796 0.717418
vt 0.550976 0.717408
vt 0.575874 0.717412
vt 0.600213 0.717430
vt 0.623442 0.717454
vt 0.500000 0.150000
vt 0.641241 0.146638
vt 0.553514 0.083356
vt 0.561803 0.059789
vt 0.661803 0.132443
vt 0.445345 0.083727
vt 0.438197 0.059789
vt 0.358050 0.147609
vt 0.338197 0.132443
vt 0.324976 0.250603
vt 0.300000 0.250000
vt 0.358757 0.353366
vt 0.338197 0.367557
vt 0.446486 0.416645
vt 0.438197 0.440211
vt 0.554655 0.416273
vt 0.561803 0.440211
vt 0.641950 0.352344
vt 0.661803 0.367557
vt 0.674993 0.249436
vt 0.700000 0.250000
vt 0.569529 0.036012
vt 0.682029 0.117748
vt 0.430471 0.036012
vt 0.317971 0.117748
vt 0.275000 0.250000
vt 0.317971 0.382252
vt 0.430471 0.463988
vt 0.569529 0.463988
vt 0.682029 0.382252
vt 0.725000 0.250000
vt 0.577254 0.012236
vt 0.702254 0.103054
vt 0.422746 0.012236
vt 0.297746 0.103054
vt 0.250000 0.250000
vt 0.297746 0.396946
vt 0.422746 0.487764
vt 0.577254 0.487764
vt 0.702254 0.396946
vt 0.750000 0.250000
vt 0.250000 0.500000
vt 0.300000 0.500000
vt 0.500000 1.000000
vt 0.350000 0.500000
vt 0.400000 0.500000
vt 0.450000 0.500000
vt 0.500000 0.500000
vt 0.550000 0.500000
vt 0.600000 0.500000
vt 0.650000 0.500000
vt 0.700000 0.500000
vt 0.750000 0.500000
vn -0.585467 0.810681 0.005015
vn -0.585466 0.810681 0.005015
vn -0.585467 0.810681 0.005015
vn -0.585466 0.810681 0.005015
vn -0.999943 -0.004966 0.009446
vn -0.999943 -0.004966 0.009446
vn -0.999943 -0.004966 0.009446
vn -0.999943 -0.004966 0.009446
vn -0.581257 -0.813675 0.008599
vn -0.581257 -0.813675 0.008599
vn -0.581257 -0.813675 0.008599
vn -0.581257 -0.813675 0.008599
vn -0.165734 -0.986144 0.007291
vn -0.165734 -0.986144 0.007291
vn -0.165734 -0.986144 0.007291
vn -0.165734 -0.986144 0.007291
vn 0.168606 -0.985657 0.007297
vn 0.168606 -0.985657 0.007297
vn 0.168606 -0.985657 0.007297
vn 0.168606 -0.985657 0.007297
vn 0.585457 -0.810658 0.008617
vn 0.585457 -0.810658 0.008617
vn 0.585457 -0.810658 0.008617
vn 0.585457 -0.810658 0.008617
vn 0.999943 0.004972 0.009426
vn 0.999943 0.004972 0.009426
vn 0.999943 0.004972 0.009426
vn 0.999943 0.004972 0.009426
vn 0.581272 0.813694 0.004986
vn 0.581272 0.813694 0.004986
vn 0.581272 0.813694 0.004986
vn 0.581272 0.813694 0.004986
vn 0.165740 0.986165 0.002912
vn 0.165740 0.986165 0.002912
vn 0.165740 0.986165 0.002912
vn 0.165740 0.986165 0.002912
vn -0.168606 0.985679 0.002919
vn -0.168606 0.985679 0.002919
vn -0.168606 0.985679 0.002919
vn -0.168606 0.985679 0.002919
vn 0.000000 -0.000000 -1.000000
vn 0.000000 -0.000001 -1.000000
vn -0.000000 0.000000 -1.000000
vn 0.000000 0.000000 -1.000000
vn 0.000000 0.000000 -1.000000
vn 0.000000 0.000000 -1.000000
vn -0.000000 0.000000 -1.000000
vn -0.000000 0.000000 -1.000000
vn -0.000000 0.000000 -1.000000
vn -0.000001 0.000000 -1.000000
vn -0.000000 0.000000 -1.000000
vn 0.000307 -0.000487 -1.000000
vn 0.003087 -0.001973 -0.999993
vn 0.001176 -0.000443 -0.999999
vn 0.000438 -0.000768 -1.000000
vn 0.004380 0.003341 -0.999985
vn 0.001451 0.000613 -0.999999
vn 0.001963 0.006482 -0.999977
vn 0.001277 0.002448 -0.999996
vn 0.000130 0.003792 -0.999993
vn 0.000082 0.001688 -0.999999
vn 0.000306 -0.000484 -1.000000
vn 0.000437 -0.000768 -1.000000
vn 0.003087 -0.001972 -0.999993
vn 0.001177 -0.000443 -0.999999
vn 0.004381 0.003342 -0.999985
vn 0.001453 0.000613 -0.999999
vn 0.001962 0.006482 -0.999977
vn 0.001277 0.002449 -0.999996
vn 0.000131 0.003791 -0.999993
vn 0.000082 0.001688 -0.999999
vn 0.000000 0.000001 -1.000000
vn -0.000001 0.000001 -1.000000
vn 0.000001 0.000000 -1.000000
vn 0.000000 0.000001 -1.000000
vn 0.000000 0.000000 -1.000000
vn 0.000001 -0.000000 -1.000000
vn -0.000000 -0.000000 -1.000000
vn -0.000001 -0.000001 -1.000000
vn -0.000001 -0.000000 -1.000000
vn -0.000001 0.000001 -1.000000
vn -0.000000 0.000000 -1.000000
vn -0.000001 0.000002 -1.000000
vn 0.000001 0.000000 -1.000000
vn 0.000002 0.000002 -1.000000
vn 0.000001 0.000002 -1.000000
vn -0.000001 0.000000 -1.000000
vn -0.000002 -0.000000 -1.000000
vn -0.000002 -0.000001 -1.000000
vn -0.000002 -0.000001 -1.000000
vn -0.000001 0.000002 -1.000000
vn -0.538311 0.749459 0.385399
vn -0.538311 0.749459 0.385399
vn -0.538311 0.749459 0.385399
vn -0.865328 0.000000 0.501206
vn -0.865328 0.000000 0.501206
vn -0.865328 0.000000 0.501206
vn -0.538310 -0.749460 0.385399
vn -0.538310 -0.749460 0.385399
vn -0.538310 -0.749460 0.385399
vn -0.159525 -0.940822 0.299008
vn -0.159525 -0.940822 0.299008
vn -0.159525 -0.940822 0.299008
vn 0.159525 -0.940822 0.299008
vn 0.159525 -0.940822 0.299008
vn 0.159525 -0.940822 0.299008
vn 0.538310 -0.749460 0.385399
vn 0.538310 -0.749460 0.385399
vn 0.538310 -0.749460 0.385399
vn 0.865328 0.000001 0.501206
vn 0.865328 0.000001 0.501206
vn 0.865328 0.000001 0.501206
vn 0.538310 0.749460 0.385399
vn 0.538310 0.749460 0.385399
vn 0.538310 0.749460 0.385399
vn 0.159526 0.940822 0.299008
vn 0.159526 0.940822 0.299008
vn 0.159526 0.940822 0.299008
vn -0.159525 0.940822 0.299008
vn -0.159525 0.940822 0.299008
vn -0.159525 0.940822 0.299008
s off
g pCylinder2
usemtl blinn1SG
f 1/11/1 2/12/2 12/23/3 11/22/4
f 2/12/5 3/13/6 13/24/7 12/23/8
f 3/13/9 4/14/10 14/25/11 13/24/12
f 4/14/13 5/15/14 15/26/15 14/25/16
f 5/15/17 6/16/18 16/27/19 15/26/20
f 6/16/21 7/17/22 17/28/23 16/27/24
f 7/17/25 8/18/26 18/29/27 17/28/28
f 8/18/29 9/19/30 19/30/31 18/29/32
f 9/19/33 10/20/34 20/31/35 19/30/36
f 10/20/37 1/21/38 11/32/39 20/31/40
s 1
f 2/2/41 1/1/42 21/33/43
f 3/3/44 2/2/41 21/33/43
f 4/4/45 3/3/44 21/33/43
f 5/5/46 4/4/45 21/33/43
f 6/6/47 5/5/46 21/33/43
f 7/7/48 6/6/47 21/33/43
f 8/8/49 7/7/48 21/33/43
f 9/9/50 8/8/49 21/33/43
f 10/10/51 9/9/50 21/33/43
f 1/1/42 10/10/51 21/33/43
s 2
f 11/34/52 12/35/53 23/36/54 22/37/55
f 12/35/53 13/38/56 24/39/57 23/36/54
f 13/38/56 14/40/58 25/41/59 24/39/57
f 14/40/58 15/42/60 26/43/61 25/41/59
f 15/42/60 16/44/62 27/45/63 26/43/61
f 16/44/62 17/46/64 28/47/65 27/45/63
f 17/46/64 18/48/66 29/49/67 28/47/65
f 18/48/66 19/50/68 30/51/69 29/49/67
f 19/50/68 20/52/70 31/53/71 30/51/69
f 20/52/70 11/34/52 22/37/55 31/53/71
f 22/37/55 23/36/54 33/54/72 32/55/73
f 23/36/54 24/39/57 34/56/74 33/54/72
f 24/39/57 25/41/59 35/57/75 34/56/74
f 25/41/59 26/43/61 36/58/76 35/57/75
f 26/43/61 27/45/63 37/59/77 36/58/76
f 27/45/63 28/47/65 38/60/78 37/59/77
f 28/47/65 29/49/67 39/61/79 38/60/78
f 29/49/67 30/51/69 40/62/80 39/61/79
f 30/51/69 31/53/71 41/63/81 40/62/80
f 31/53/71 22/37/55 32/55/73 41/63/81
f 32/55/73 33/54/72 43/64/82 42/65/83
f 33/54/72 34/56/74 44/66/84 43/64/82
f 34/56/74 35/57/75 45/67/85 44/66/84
f 35/57/75 36/58/76 46/68/86 45/67/85
f 36/58/76 37/59/77 47/69/87 46/68/86
f 37/59/77 38/60/78 48/70/88 47/69/87
f 38/60/78 39/61/79 49/71/89 48/70/88
f 39/61/79 40/62/80 50/72/90 49/71/89
f 40/62/80 41/63/81 51/73/91 50/72/90
f 41/63/81 32/55/73 42/65/83 51/73/91
s off
f 42/74/92 43/75/93 52/76/94
f 43/75/95 44/77/96 52/76/97
f 44/77/98 45/78/99 52/76/100
f 45/78/101 46/79/102 52/76/103
f 46/79/104 47/80/105 52/76/106
f 47/80/107 48/81/108 52/76/109
f 48/81/110 49/82/111 52/76/112
f 49/82/113 50/83/114 52/76/115
f 50/83/116 51/84/117 52/76/118
f 51/84/119 42/85/120 52/76/121
