# This file uses centimeters as units for non-parametric coordinates.

mtllib arrow.mtl
g default
v 9.161169 2.957282 -0.587785
v 9.161169 2.696358 -0.951057
v 9.161169 2.373837 -0.951057
v 9.161169 2.112912 -0.587785
v 9.161169 2.013248 0.000000
v 9.161169 2.112912 0.587785
v 9.161169 2.373837 0.951057
v 9.161169 2.696358 0.951057
v 9.161169 2.957282 0.587785
v 9.161169 3.056947 0.000000
v 1.881598 2.941417 -0.549368
v 1.881221 2.698394 -0.883897
v 1.881035 2.399172 -0.880808
v 1.881113 2.158044 -0.541280
v 1.881425 2.067112 0.004999
v 1.881851 2.161110 0.549368
v 1.882229 2.404134 0.883897
v 1.882414 2.703356 0.880808
v 1.882336 2.944484 0.541280
v 1.882025 3.035415 -0.004999
v 9.161169 2.535097 0.000000
v 1.881725 2.998912 -0.623237
v 1.881725 2.722250 -1.008418
v 1.881725 2.380277 -1.008418
v 1.881725 2.103615 -0.623236
v 1.881725 1.997940 0.000000
v 1.881725 2.103615 0.623237
v 1.881725 2.380277 1.008418
v 1.881725 2.722250 1.008418
v 1.881725 2.998912 0.623236
v 1.881725 3.104588 0.000000
v 1.881725 3.054868 -0.701141
v 1.881725 2.743624 -1.134470
v 1.881725 2.358904 -1.134470
v 1.881725 2.047659 -0.701141
v 1.881725 1.928774 0.000000
v 1.881725 2.047659 0.701141
v 1.881725 2.358904 1.134470
v 1.881725 2.743624 1.134470
v 1.881725 3.054868 0.701141
v 1.881725 3.173753 0.000000
v 1.881725 3.110824 -0.779046
v 1.881725 2.764997 -1.260522
v 1.881725 2.337531 -1.260522
v 1.881725 1.991703 -0.779045
v 1.881725 1.859609 0.000000
v 1.881725 1.991703 0.779046
v 1.881725 2.337531 1.260522
v 1.881725 2.764997 1.260522
v 1.881725 3.110824 0.779045
v 1.881725 3.242919 0.000000
v -0.294554 2.551264 0.000000
vt 0.626409 0.064409
vt 0.548284 0.007647
vt 0.451716 0.007647
vt 0.373591 0.064409
vt 0.343750 0.156250
vt 0.373591 0.248091
vt 0.451716 0.304853
vt 0.548284 0.304853
vt 0.626409 0.248091
vt 0.656250 0.156250
vt 0.375000 0.312500
vt 0.400000 0.312500
vt 0.425000 0.312500
vt 0.450000 0.312500
vt 0.475000 0.312500
vt 0.500000 0.312500
vt 0.525000 0.312500
vt 0.550000 0.312500
vt 0.575000 0.312500
vt 0.600000 0.312500
vt 0.625000 0.312500
vt 0.375085 0.717453
vt 0.398819 0.717475
vt 0.423508 0.717485
vt 0.448765 0.717480
vt 0.474407 0.717463
vt 0.500186 0.717439
vt 0.525796 0.717418
vt 0.550976 0.717408
vt 0.575874 0.717412
vt 0.600213 0.717430
vt 0.623442 0.717454
vt 0.500000 0.150000
vt 0.641241 0.146638
vt 0.553514 0.083356
vt 0.561803 0.059789
vt 0.661803 0.132443
vt 0.445345 0.083727
vt 0.438197 0.059789
vt 0.358050 0.147609
vt 0.338197 0.132443
vt 0.324976 0.250603
vt 0.300000 0.250000
vt 0.358757 0.353366
vt 0.338197 0.367557
vt 0.446486 0.416645
vt 0.438197 0.440211
vt 0.554655 0.416273
vt 0.561803 0.440211
vt 0.641950 0.352344
vt 0.661803 0.367557
vt 0.674993 0.249436
vt 0.700000 0.250000
vt 0.569529 0.036012
vt 0.682029 0.117748
vt 0.430471 0.036012
vt 0.317971 0.117748
vt 0.275000 0.250000
vt 0.317971 0.382252
vt 0.430471 0.463988
vt 0.569529 0.463988
vt 0.682029 0.382252
vt 0.725000 0.250000
vt 0.577254 0.012236
vt 0.702254 0.103054
vt 0.422746 0.012236
vt 0.297746 0.103054
vt 0.250000 0.250000
vt 0.297746 0.396946
vt 0.422746 0.487764
vt 0.577254 0.487764
vt 0.702254 0.396946
vt 0.750000 0.250000
vt 0.250000 0.500000
vt 0.300000 0.500000
vt 0.500000 1.000000
vt 0.350000 0.500000
vt 0.400000 0.500000
vt 0.450000 0.500000
vt 0.500000 0.500000
vt 0.550000 0.500000
vt 0.600000 0.500000
vt 0.650000 0.500000
vt 0.700000 0.500000
vt 0.750000 0.500000
vn -0.005015 0.810681 -0.585467
vn -0.005015 0.810681 -0.585467
vn -0.005015 0.810681 -0.585467
vn -0.005015 0.810681 -0.585467
vn -0.009446 -0.004966 -0.999943
vn -0.009446 -0.004966 -0.999943
vn -0.009446 -0.004966 -0.999943
vn -0.009446 -0.004966 -0.999943
vn -0.008599 -0.813675 -0.581257
vn -0.008599 -0.813675 -0.581257
vn -0.008599 -0.813674 -0.581257
vn -0.008599 -0.813675 -0.581257
vn -0.007291 -0.986144 -0.165734
vn -0.007291 -0.986144 -0.165734
vn -0.007291 -0.986144 -0.165734
vn -0.007291 -0.986144 -0.165734
vn -0.007297 -0.985656 0.168606
vn -0.007297 -0.985657 0.168606
vn -0.007297 -0.985656 0.168606
vn -0.007297 -0.985656 0.168606
vn -0.008617 -0.810658 0.585457
vn -0.008617 -0.810658 0.585457
vn -0.008617 -0.810658 0.585457
vn -0.008617 -0.810658 0.585457
vn -0.009426 0.004972 0.999943
vn -0.009426 0.004972 0.999943
vn -0.009426 0.004972 0.999943
vn -0.009426 0.004972 0.999943
vn -0.004986 0.813694 0.581272
vn -0.004986 0.813694 0.581272
vn -0.004986 0.813694 0.581272
vn -0.004986 0.813694 0.581272
vn -0.002912 0.986165 0.165740
vn -0.002912 0.986165 0.165740
vn -0.002912 0.986165 0.165740
vn -0.002912 0.986165 0.165740
vn -0.002919 0.985679 -0.168606
vn -0.002919 0.985679 -0.168606
vn -0.002919 0.985679 -0.168606
vn -0.002919 0.985679 -0.168606
vn 1.000000 0.000000 0.000000
vn 1.000000 0.000003 0.000000
vn 1.000000 -0.000000 0.000000
vn 1.000000 -0.000003 0.000000
vn 1.000000 0.000001 0.000000
vn 1.000000 0.000001 0.000000
vn 1.000000 0.000000 0.000000
vn 1.000000 -0.000003 0.000000
vn 1.000000 -0.000001 0.000000
vn 1.000000 0.000001 0.000000
vn 1.000000 0.000000 0.000000
vn 0.999999 -0.001150 0.000672
vn 0.999993 -0.001734 0.003317
vn 0.999999 -0.000672 0.001200
vn 1.000000 -0.000383 0.000226
vn 0.999986 0.002904 0.004424
vn 0.999998 0.001015 0.001644
vn 0.999977 0.006356 0.002463
vn 0.999997 0.002346 0.000944
vn 0.999993 0.003850 0.000145
vn 0.999999 0.001481 0.000067
vn 0.999999 -0.001151 0.000672
vn 1.000000 -0.000384 0.000226
vn 0.999993 -0.001735 0.003317
vn 0.999999 -0.000672 0.001200
vn 0.999986 0.002905 0.004424
vn 0.999998 0.001015 0.001644
vn 0.999977 0.006356 0.002463
vn 0.999997 0.002346 0.000944
vn 0.999993 0.003850 0.000145
vn 0.999999 0.001481 0.000067
vn 1.000000 0.000000 0.000000
vn 1.000000 -0.000001 0.000000
vn 1.000000 0.000000 0.000000
vn 1.000000 0.000000 0.000000
vn 1.000000 0.000001 0.000000
vn 1.000000 0.000000 0.000000
vn 1.000000 -0.000000 0.000000
vn 1.000000 -0.000000 0.000000
vn 1.000000 -0.000000 0.000000
vn 1.000000 -0.000001 0.000000
vn 1.000000 0.000000 0.000000
vn 1.000000 -0.000001 0.000000
vn 1.000000 0.000000 0.000000
vn 1.000000 0.000001 0.000000
vn 1.000000 0.000002 0.000000
vn 1.000000 0.000001 0.000000
vn 1.000000 -0.000001 0.000000
vn 1.000000 -0.000000 0.000000
vn 1.000000 0.000000 0.000000
vn 1.000000 -0.000001 0.000000
vn -0.385399 0.749459 -0.538310
vn -0.385399 0.749459 -0.538310
vn -0.385399 0.749460 -0.538310
vn -0.501206 -0.000000 -0.865328
vn -0.501206 -0.000000 -0.865328
vn -0.501206 -0.000000 -0.865328
vn -0.385399 -0.749460 -0.538310
vn -0.385399 -0.749460 -0.538310
vn -0.385399 -0.749460 -0.538310
vn -0.299008 -0.940822 -0.159525
vn -0.299008 -0.940822 -0.159525
vn -0.299008 -0.940822 -0.159525
vn -0.299008 -0.940822 0.159525
vn -0.299008 -0.940822 0.159525
vn -0.299008 -0.940822 0.159525
vn -0.385399 -0.749459 0.538310
vn -0.385399 -0.749459 0.538310
vn -0.385399 -0.749460 0.538310
vn -0.501206 0.000000 0.865328
vn -0.501206 0.000000 0.865328
vn -0.501206 0.000000 0.865328
vn -0.385399 0.749460 0.538310
vn -0.385399 0.749460 0.538310
vn -0.385399 0.749460 0.538310
vn -0.299008 0.940822 0.159525
vn -0.299008 0.940822 0.159525
vn -0.299008 0.940822 0.159525
vn -0.299008 0.940822 -0.159525
vn -0.299008 0.940822 -0.159525
vn -0.299008 0.940822 -0.159525
s off
g pCylinder2
usemtl blinn1SG
f 1/11/1 2/12/2 12/23/3 11/22/4
f 2/12/5 3/13/6 13/24/7 12/23/8
f 3/13/9 4/14/10 14/25/11 13/24/12
f 4/14/13 5/15/14 15/26/15 14/25/16
f 5/15/17 6/16/18 16/27/19 15/26/20
f 6/16/21 7/17/22 17/28/23 16/27/24
f 7/17/25 8/18/26 18/29/27 17/28/28
f 8/18/29 9/19/30 19/30/31 18/29/32
f 9/19/33 10/20/34 20/31/35 19/30/36
f 10/20/37 1/21/38 11/32/39 20/31/40
s 1
f 2/2/41 1/1/42 21/33/43
f 3/3/44 2/2/41 21/33/43
f 4/4/45 3/3/44 21/33/43
f 5/5/46 4/4/45 21/33/43
f 6/6/47 5/5/46 21/33/43
f 7/7/48 6/6/47 21/33/43
f 8/8/49 7/7/48 21/33/43
f 9/9/50 8/8/49 21/33/43
f 10/10/51 9/9/50 21/33/43
f 1/1/42 10/10/51 21/33/43
s 2
f 11/34/52 12/35/53 23/36/54 22/37/55
f 12/35/53 13/38/56 24/39/57 23/36/54
f 13/38/56 14/40/58 25/41/59 24/39/57
f 14/40/58 15/42/60 26/43/61 25/41/59
f 15/42/60 16/44/62 27/45/63 26/43/61
f 16/44/62 17/46/64 28/47/65 27/45/63
f 17/46/64 18/48/66 29/49/67 28/47/65
f 18/48/66 19/50/68 30/51/69 29/49/67
f 19/50/68 20/52/70 31/53/71 30/51/69
f 20/52/70 11/34/52 22/37/55 31/53/71
f 22/37/55 23/36/54 33/54/72 32/55/73
f 23/36/54 24/39/57 34/56/74 33/54/72
f 24/39/57 25/41/59 35/57/75 34/56/74
f 25/41/59 26/43/61 36/58/76 35/57/75
f 26/43/61 27/45/63 37/59/77 36/58/76
f 27/45/63 28/47/65 38/60/78 37/59/77
f 28/47/65 29/49/67 39/61/79 38/60/78
f 29/49/67 30/51/69 40/62/80 39/61/79
f 30/51/69 31/53/71 41/63/81 40/62/80
f 31/53/71 22/37/55 32/55/73 41/63/81
f 32/55/73 33/54/72 43/64/82 42/65/83
f 33/54/72 34/56/74 44/66/84 43/64/82
f 34/56/74 35/57/75 45/67/85 44/66/84
f 35/57/75 36/58/76 46/68/86 45/67/85
f 36/58/76 37/59/77 47/69/87 46/68/86
f 37/59/77 38/60/78 48/70/88 47/69/87
f 38/60/78 39/61/79 49/71/89 48/70/88
f 39/61/79 40/62/80 50/72/90 49/71/89
f 40/62/80 41/63/81 51/73/91 50/72/90
f 41/63/81 32/55/73 42/65/83 51/73/91
s off
f 42/74/92 43/75/93 52/76/94
f 43/75/95 44/77/96 52/76/97
f 44/77/98 45/78/99 52/76/100
f 45/78/101 46/79/102 52/76/103
f 46/79/104 47/80/105 52/76/106
f 47/80/107 48/81/108 52/76/109
f 48/81/110 49/82/111 52/76/112
f 49/82/113 50/83/114 52/76/115
f 50/83/116 51/84/117 52/76/118
f 51/84/119 42/85/120 52/76/121
